<svg version="1.1" id="Layer_1" xmlns="http://www.w3.org/2000/svg" xmlns:xlink="http://www.w3.org/1999/xlink" x="0px" y="0px"
	 width="100%" viewBox="0 0 512 512" enable-background="new 0 0 512 512" xml:space="preserve">
<path fill="#000000" opacity="1.000000" stroke="none" 
	d="
M65.851944,297.999146 
	C65.850975,267.843109 65.967751,238.185974 65.742058,208.531448 
	C65.701935,203.259277 67.125328,200.057846 71.940529,197.408844 
	C86.237801,189.543442 100.187706,181.049179 114.375549,172.980362 
	C117.523087,171.190308 118.784729,169.037140 118.744843,165.407028 
	C118.583771,150.747314 118.753830,136.084183 118.632385,121.423706 
	C118.606064,118.245956 119.528702,116.242096 122.406509,114.591255 
	C153.611450,96.690674 184.761063,78.693291 215.865372,60.618385 
	C218.478088,59.100117 220.400040,59.602100 222.750015,60.975586 
	C234.540985,67.867027 246.447754,74.560982 258.210083,81.500221 
	C261.124542,83.219597 263.446075,83.388130 266.458862,81.595680 
	C278.051483,74.698730 289.843842,68.138130 301.460632,61.280853 
	C304.339691,59.581387 306.630249,59.282219 309.697021,61.065884 
	C340.649780,79.068306 371.674896,96.946625 402.730743,114.770851 
	C405.635651,116.438087 406.338593,118.673653 406.318756,121.767456 
	C406.225830,136.261719 406.401611,150.758499 406.211151,165.250839 
	C406.161469,169.032410 407.252441,171.313248 410.653748,173.234787 
	C425.298737,181.508316 439.735229,190.150421 454.356293,198.467255 
	C457.647675,200.339462 459.015137,202.549072 459.000488,206.398804 
	C458.869049,241.052811 458.853790,275.707733 458.983673,310.361694 
	C459.000641,314.888885 457.556427,317.654572 453.506805,319.917694 
	C439.115662,327.960114 424.986633,336.470825 410.620941,344.560181 
	C407.219177,346.475708 406.122772,348.772491 406.190002,352.552155 
	C406.406219,364.710754 406.182159,376.876770 406.342346,389.037109 
	C406.387299,392.449738 405.227661,394.525238 402.243561,396.238617 
	C371.192749,414.066803 340.193237,431.984589 309.231354,449.966797 
	C306.753693,451.405792 304.832153,451.441742 302.354370,449.977234 
	C290.597839,443.028564 278.678314,436.354492 266.955658,429.350342 
	C263.680328,427.393372 261.100128,427.337982 257.799622,429.323761 
	C246.385056,436.191376 234.744659,442.683105 223.312729,449.522644 
	C220.427139,451.249023 218.255539,451.560883 215.149933,449.751282 
	C184.498779,431.891174 153.759537,414.181702 122.981323,396.541077 
	C119.858650,394.751282 118.563965,392.638794 118.624161,388.995056 
	C118.825020,376.835907 118.563553,364.668701 118.798241,352.510742 
	C118.873238,348.625427 117.422073,346.445374 114.148880,344.592560 
	C99.510796,336.306610 85.035301,327.733002 70.379692,319.478821 
	C67.019875,317.586548 65.611282,315.283234 65.816116,311.489685 
	C66.049278,307.171387 65.859055,302.830200 65.851944,297.999146 
M191.945465,95.511452 
	C175.087677,105.282303 158.271652,115.126579 141.334656,124.758133 
	C138.185715,126.548843 136.822678,128.622421 136.884628,132.267548 
	C137.068588,143.093765 137.138901,153.929688 136.867493,164.752136 
	C136.755249,169.226761 138.499878,171.507889 142.324097,173.695267 
	C147.042191,176.393906 151.646606,176.969604 156.926102,176.782349 
	C164.094788,176.528076 169.841064,182.293762 171.086044,189.815491 
	C172.100311,195.943253 167.499786,203.229828 161.174423,205.514114 
	C154.443741,207.944748 146.006241,205.659073 143.443695,199.378586 
	C140.929337,193.216080 136.052368,190.830338 130.957596,188.056351 
	C128.635529,186.792038 126.775093,186.809616 124.476357,188.156769 
	C112.407677,195.229538 100.285332,202.212708 88.107338,209.095551 
	C85.310631,210.676193 84.152672,212.647873 84.209068,215.898773 
	C84.379547,225.725525 84.271545,235.557144 84.268661,245.386856 
	C84.266586,252.463379 87.335358,254.731705 94.113853,252.399841 
	C95.606430,251.886398 96.800980,250.516220 98.143684,249.555832 
	C103.717003,245.569443 110.961777,245.621231 116.333092,249.678925 
	C121.418365,253.520554 123.573593,260.344055 121.544930,266.179626 
	C119.248573,272.785217 113.781494,276.424347 106.637184,276.387573 
	C102.522209,276.366394 99.324692,274.641754 96.345428,272.010895 
	C93.211830,269.243744 89.231079,269.891479 85.890968,270.874451 
	C82.905853,271.752960 84.365730,275.231140 84.323395,277.543091 
	C84.170944,285.870514 84.330971,294.203217 84.232986,302.532318 
	C84.202530,305.121765 84.954590,306.925598 87.299065,308.259460 
	C100.037399,315.506958 112.718575,322.854858 125.428139,330.153046 
	C126.566284,330.806641 127.784554,331.800201 129.135284,331.072632 
	C134.110504,328.392670 140.035278,327.437256 142.836777,321.186981 
	C145.602127,315.017365 153.038239,312.354858 159.398224,314.120789 
	C166.208252,316.011688 170.354645,321.411865 170.370499,328.410980 
	C170.393875,338.720520 162.150436,345.026184 151.285385,343.009827 
	C143.457535,341.557129 136.897003,346.843872 136.908493,354.610840 
	C136.920807,362.940918 137.004471,371.271454 136.940918,379.600861 
	C136.919556,382.401672 137.962631,384.182953 140.447479,385.610352 
	C165.287476,399.879486 190.101898,414.194092 214.832672,428.651276 
	C218.024902,430.517395 220.460403,430.304749 223.495483,428.457062 
	C231.744080,423.435547 240.050415,418.483093 248.564072,413.934082 
	C252.520798,411.819946 253.736237,409.192413 253.720139,404.813385 
	C253.565765,362.829376 253.630569,320.844513 253.629303,278.859924 
	C253.629257,277.527435 253.622894,276.193817 253.569962,274.862701 
	C253.450760,271.864532 252.017410,270.478821 248.872208,270.308990 
	C244.842453,270.091461 241.628159,271.203156 238.354523,273.681366 
	C233.442154,277.400146 227.741058,277.572662 222.356750,274.561188 
	C217.140594,271.643768 214.498245,266.848297 214.787338,260.878571 
	C215.087585,254.678162 218.368637,250.114426 224.099075,247.793045 
	C230.005112,245.400482 235.553101,246.485458 240.319580,250.835861 
	C243.784073,253.997955 247.921265,252.742859 251.748398,252.324234 
	C254.022675,252.075455 253.581711,249.464157 253.582703,247.698593 
	C253.609634,199.716248 253.589691,151.733856 253.657898,103.751587 
	C253.661987,100.882896 252.620224,99.129990 250.166946,97.752533 
	C241.018494,92.615906 231.885941,87.445259 222.871490,82.078964 
	C220.068771,80.410530 217.799759,80.442612 215.049179,82.098450 
	C207.630280,86.564651 200.082077,90.816040 191.945465,95.511452 
M271.341919,132.499878 
	C271.343903,169.832016 271.343567,207.164169 271.349670,244.496307 
	C271.351044,252.894089 272.588684,253.863480 280.961639,252.681641 
	C283.211365,252.364059 284.357666,250.713287 285.942383,249.580505 
	C291.545410,245.575485 298.662476,245.578720 304.126923,249.642471 
	C309.180939,253.400970 311.307373,260.133606 309.336151,266.135620 
	C307.189087,272.673096 301.572632,276.441772 294.474060,276.386169 
	C290.351074,276.353851 287.211823,274.504089 284.178131,271.971710 
	C280.867737,269.208405 276.723145,269.864532 273.203278,270.884918 
	C269.912872,271.838745 271.397644,275.506775 271.393188,277.959991 
	C271.315796,320.625916 271.386688,363.292145 271.279999,405.957947 
	C271.270966,409.575073 272.376953,411.775726 275.554871,413.530975 
	C284.595093,418.524170 293.518005,423.733154 302.417480,428.975372 
	C304.640961,430.285065 306.417603,430.541016 308.822815,429.145660 
	C334.042480,414.514587 359.329529,399.999542 384.616852,385.485260 
	C386.859222,384.198181 387.938904,382.514099 387.912964,379.844971 
	C387.820709,370.346130 387.827026,360.845123 387.925842,351.346313 
	C387.953979,348.641602 386.704865,347.289215 384.486298,345.895935 
	C379.672180,342.872681 374.715820,342.821014 369.249237,343.256622 
	C361.609344,343.865509 355.778870,338.484406 354.343628,330.679932 
	C353.139771,324.133636 357.091949,317.292206 363.578857,314.693268 
	C370.339386,311.984680 378.833801,314.245453 381.719727,320.826111 
	C384.502930,327.172546 390.309967,328.140411 395.215454,330.902008 
	C396.756775,331.769714 398.139313,330.930908 399.435059,330.186890 
	C412.003326,322.969818 424.560455,315.733337 437.115479,308.493286 
	C439.042999,307.381714 440.690460,306.127563 440.677643,303.521942 
	C440.629272,293.689178 440.643646,283.855927 440.681488,274.023071 
	C440.691132,271.516449 439.552032,270.465240 437.063049,270.346527 
	C433.139069,270.159363 429.817688,270.792480 426.446869,273.414276 
	C419.185242,279.062347 409.266510,276.897095 404.783539,269.284760 
	C400.221069,261.537598 403.045441,251.944321 411.240906,248.103851 
	C417.308411,245.260590 423.048279,246.466354 427.958893,250.784943 
	C431.383942,253.797073 435.350830,253.148331 438.827667,252.235733 
	C442.109467,251.374313 440.587311,247.637375 440.627106,245.179245 
	C440.786316,235.348633 440.596619,225.512421 440.749817,215.681610 
	C440.797302,212.634277 439.746735,210.717896 437.120300,209.226974 
	C424.659088,202.153290 412.261566,194.967392 399.838684,187.826157 
	C398.688019,187.164719 397.379974,186.125443 396.138855,186.941681 
	C391.308014,190.118805 384.887390,190.887650 382.336151,197.511444 
	C379.546570,204.754288 371.912140,207.941071 364.634308,205.810883 
	C357.535736,203.733170 352.626587,196.242889 353.808228,189.292648 
	C355.114044,181.612015 361.562592,175.744232 369.352814,176.841949 
	C375.513153,177.710007 379.833984,174.942764 384.620209,172.446152 
	C386.945068,171.233459 387.931610,169.477142 387.914276,166.823792 
	C387.836975,154.991180 387.838776,143.157425 387.922089,131.324860 
	C387.941742,128.532150 387.001190,126.708405 384.499573,125.273315 
	C359.353027,110.847816 334.245422,96.354042 309.175140,81.796356 
	C306.698181,80.358025 304.741486,80.424950 302.285339,81.886559 
	C293.267487,87.252892 284.160156,92.472588 275.005829,97.603470 
	C272.367401,99.082268 271.247070,100.937340 271.297150,104.001144 
	C271.446991,113.165184 271.345459,122.333321 271.341919,132.499878 
z"/>
<path fill="#000000" opacity="1.000000" stroke="none" 
	d="
M162.628418,285.921753 
	C162.621445,268.771606 162.700058,252.109436 162.536011,235.449661 
	C162.504303,232.229950 163.507401,230.203339 166.169876,228.456070 
	C175.778992,222.150040 185.186432,215.533859 194.854889,209.322617 
	C198.299454,207.109756 199.881546,204.684296 199.765320,200.449585 
	C199.472885,189.794388 199.684464,179.125702 199.667130,168.462463 
	C199.656815,162.119080 198.985855,161.474976 192.432037,161.266495 
	C184.140594,161.002731 177.826584,155.045334 177.243866,146.936172 
	C176.694977,139.297745 182.422104,132.482376 190.394684,131.286514 
	C197.282364,130.253387 204.460037,134.344833 206.203339,141.344482 
	C207.328232,145.861115 209.810471,148.678177 213.370911,150.963089 
	C216.756744,153.135986 218.214035,155.961578 218.168640,160.110367 
	C217.984634,176.936371 218.007370,193.766083 218.139236,210.592972 
	C218.167297,214.173630 216.896484,216.416901 213.913406,218.361923 
	C203.870300,224.910187 194.029297,231.767929 184.008087,238.350662 
	C181.337555,240.104889 180.255753,242.175034 180.297043,245.357956 
	C180.437546,256.186005 180.492172,267.019897 180.270279,277.845215 
	C180.196426,281.447968 181.594818,283.235870 184.754318,284.605255 
	C194.379349,288.776886 203.845612,293.316101 213.486008,297.450317 
	C216.918365,298.922302 218.180237,301.033447 218.152390,304.699951 
	C218.017044,322.526642 218.007858,340.355255 218.125244,358.182037 
	C218.148407,361.697754 216.792618,364.147400 214.315475,366.418579 
	C210.218735,370.174622 206.432663,373.725769 205.339813,380.040710 
	C204.036057,387.574463 196.030930,392.012817 189.021118,390.779785 
	C181.651794,389.483521 176.537888,383.537872 176.457077,376.172211 
	C176.368301,368.081177 181.307755,362.210968 189.335281,360.867340 
	C197.623657,359.480103 199.662888,357.088409 199.665894,348.745087 
	C199.669662,338.248444 199.414642,327.742523 199.792053,317.259369 
	C199.959167,312.617493 198.200119,310.356323 194.142166,308.651215 
	C186.008148,305.233368 178.185532,301.044861 169.964813,297.873138 
	C164.305740,295.689758 161.446564,292.562958 162.628418,285.921753 
z"/>
<path fill="#000000" opacity="1.000000" stroke="none" 
	d="
M348.282562,377.680145 
	C346.383118,386.397156 340.548096,391.278900 332.870178,390.988525 
	C325.523163,390.710602 319.504639,384.916870 318.730316,376.756134 
	C318.337402,372.615417 315.316284,370.664581 312.749603,368.592987 
	C308.017883,364.773895 306.528198,360.266571 306.660614,354.262695 
	C307.024323,337.772583 306.887817,321.268036 306.708282,304.771820 
	C306.665619,300.851288 308.029205,298.725464 311.627167,297.195038 
	C321.127411,293.154053 330.437286,288.666779 339.921783,284.586853 
	C343.000549,283.262512 344.127533,281.367065 344.091919,278.102631 
	C343.972015,267.105469 343.970459,256.104889 344.121277,245.108307 
	C344.167938,241.706680 342.857147,239.624390 340.036713,237.794022 
	C330.114380,231.354706 320.379303,224.627335 310.487946,218.139252 
	C307.850281,216.409103 306.702057,214.363632 306.725922,211.152542 
	C306.853485,193.988693 306.884369,176.822769 306.738770,159.659348 
	C306.706940,155.909668 307.972321,153.336273 311.022644,151.298325 
	C314.800354,148.774368 317.476898,145.721176 318.729248,140.876923 
	C320.556610,133.808319 328.344360,129.935806 335.337189,131.503632 
	C343.261200,133.280243 347.854218,139.372025 347.378662,147.474518 
	C346.968262,154.467468 340.924042,160.589859 333.806793,161.221909 
	C325.295532,161.977753 325.294556,161.977768 325.295380,170.554962 
	C325.296387,180.720490 325.486542,190.891190 325.205780,201.048904 
	C325.098969,204.914337 326.526245,207.076508 329.651764,209.100281 
	C339.297394,215.345886 348.691101,221.979630 358.306305,228.273727 
	C361.098206,230.101303 362.408691,232.130554 362.382385,235.572983 
	C362.244995,253.569885 362.238525,271.569214 362.400177,289.565796 
	C362.432251,293.137817 361.069031,295.011017 357.930725,296.391113 
	C348.477936,300.548157 339.171875,305.041626 329.687805,309.123322 
	C326.468262,310.508911 325.158386,312.287354 325.219116,315.857910 
	C325.423065,327.853210 325.266144,339.854156 325.336578,351.852448 
	C325.364929,356.676910 328.737366,360.193939 333.553284,360.721588 
	C343.472168,361.808350 348.259705,367.171234 348.282562,377.680145 
z"/>
</svg>